PathFileType	4	(X/Y/Z)	s04c0301.trc
DataRate	CameraRate	NumFrames	NumMarkers	Units	OrigDataRate	OrigDataStartFrame	OrigNumFrames
200	200	4	50	mm	200	1000	2000
Frame#	Time	racr			lacr			c7			jug			rlel			rdr			llel			ldr			s2			lic			ric			lasi			rasi			rpsi			lpsi			rgt			lgt			rth1			rth2			rth3			rth4			rlfc			rmfc			rsh1			rsh2			rsh3			rsh4			rlmal			rmmal			rcal			rtoe			rmt5			lth1			lth2			lth4			lth3			llfc			lmfc			lsh1			lsh2			lsh3			lsh4			llmal			lmmal			lcal			ltoe			lmt5			SBIKE			LBIKE			RBIKE			
		X1	Y1	Z1	X2	Y2	Z2	X3	Y3	Z3	X4	Y4	Z4	X5	Y5	Z5	X6	Y6	Z6	X7	Y7	Z7	X8	Y8	Z8	X9	Y9	Z9	X10	Y10	Z10	X11	Y11	Z11	X12	Y12	Z12	X13	Y13	Z13	X14	Y14	Z14	X15	Y15	Z15	X16	Y16	Z16	X17	Y17	Z17	X18	Y18	Z18	X19	Y19	Z19	X20	Y20	Z20	X21	Y21	Z21	X22	Y22	Z22	X23	Y23	Z23	X24	Y24	Z24	X25	Y25	Z25	X26	Y26	Z26	X27	Y27	Z27	X28	Y28	Z28	X29	Y29	Z29	X30	Y30	Z30	X31	Y31	Z31	X32	Y32	Z32	X33	Y33	Z33	X34	Y34	Z34	X35	Y35	Z35	X36	Y36	Z36	X37	Y37	Z37	X38	Y38	Z38	X39	Y39	Z39	X40	Y40	Z40	X41	Y41	Z41	X42	Y42	Z42	X43	Y43	Z43	X44	Y44	Z44	X45	Y45	Z45	X46	Y46	Z46	X47	Y47	Z47	X48	Y48	Z48	X49	Y49	Z49	X50	Y50	Z50	
1000	5.0000	835.964699	1291.281356	-158.248909	867.971839	1217.901868	-441.547899	863.511869	1329.366721	-312.832875	793.741854	1190.146892	-295.540535	597.015256	1140.860522	8.475635	707.778970	910.778018	-110.651760	613.181951	1138.943113	-586.166637	698.855864	918.527856	-481.186580	257.775067	1297.347045	-244.766355	376.000465	1282.287167	-435.537499	433.797569	1241.132573	-117.704036	404.908353	1230.580260	-403.995503	446.322343	1181.486895	-169.543913	310.998219	1325.136202	-210.679535	293.914151	1337.646536	-280.878074	366.633027	1193.709089	-95.010202	322.404728	1213.420397	-455.207315	376.908419	1030.144188	-73.881885	397.807884	944.699755	-82.657867	376.486971	861.977918	-89.502973	431.597996	946.914931	-98.832975	371.967484	716.127142	-119.064181	339.906111	707.715980	-229.302983	292.022191	619.036644	-90.488156	259.358413	536.018869	-106.748470	189.420803	484.342635	-111.095991	284.642366	520.747772	-131.921006	107.746423	354.254140	-116.753424	128.675856	351.180308	-201.529032	45.271779	379.526900	-153.524494	231.986067	138.658871	-168.152171	174.045700	172.414702	-108.361731	373.784826	1137.331092	-464.013352	449.684082	1095.117762	-470.144591	474.713652	1120.822229	-462.083474	494.838513	1019.673024	-478.646688	596.789104	890.637225	-465.005342	627.159000	860.928823	-353.857877	534.215609	794.566883	-485.667193	492.734912	719.996016	-466.021299	417.231609	672.777802	-461.831877	515.553260	702.659356	-439.394861	311.397262	567.521069	-452.010189	309.924306	571.892064	-364.083949	228.896521	585.869433	-411.126343	482.066296	421.210849	-415.975129	402.864304	425.042715	-478.155896	-185.552419	935.393082	-286.559138	-17.482770	79.534104	-485.491695	-17.428681	79.542308	-84.849421	
1001	5.0050	835.627906	1291.254212	-158.078781	866.523815	1215.877044	-442.108100	863.605500	1328.267184	-312.781846	791.948478	1190.050704	-295.248072	597.800980	1140.867801	9.184344	707.837807	910.959273	-110.151091	610.514587	1138.384844	-584.946393	698.500466	918.690524	-481.236117	258.104764	1299.725188	-247.617034	377.431021	1281.511215	-436.985350	431.845449	1243.789839	-118.495357	405.830172	1229.382408	-404.441040	444.795042	1183.265781	-169.446818	310.883592	1327.589284	-212.837290	294.318646	1339.700414	-283.193504	365.432257	1196.412014	-95.509017	322.971146	1213.313391	-456.326510	378.806581	1032.082456	-74.445239	401.895724	947.313935	-84.133538	382.724442	863.943301	-90.562688	435.469680	950.602175	-100.531945	379.505363	718.337717	-118.945280	347.849206	710.353736	-229.339546	295.943645	623.135244	-91.006392	261.006833	541.174904	-107.773359	189.504602	491.672029	-112.740218	285.987705	525.324866	-133.002390	103.246629	363.956623	-119.193343	125.081507	359.872820	-204.089283	41.424620	389.417433	-158.237552	224.003402	145.217017	-166.207983	165.723386	180.992042	-108.173961	372.832516	1135.065173	-464.546551	447.866556	1091.386439	-469.952875	473.377863	1116.572957	-462.229883	491.581474	1014.785906	-477.069784	590.619500	884.132091	-462.760035	621.208272	854.753126	-351.573807	530.535890	785.406661	-484.252531	490.375421	710.204911	-464.425770	415.257807	662.083277	-460.517728	512.852751	693.716456	-437.160311	311.014790	555.669027	-451.831501	308.477927	559.379858	-364.042734	227.512741	570.189287	-411.197182	488.471276	418.203564	-416.355651	409.166665	418.237646	-478.467430	-185.565768	935.338381	-286.866035	-17.481545	79.435894	-485.526783	-17.464457	79.563354	-84.895869	
1002	5.0100	835.164886	1291.263452	-157.588582	865.225284	1214.298969	-442.725182	863.730710	1327.392466	-312.212965	790.124000	1190.178992	-294.965680	598.358946	1140.812338	9.984475	707.560088	910.880373	-110.008179	607.937635	1137.796982	-583.529217	698.218278	918.559475	-480.935341	258.422413	1301.721684	-250.763926	378.862521	1280.358165	-438.361896	430.201472	1246.211636	-119.258920	406.860831	1227.655997	-404.822228	443.331204	1184.925182	-169.530739	310.959389	1329.259468	-215.574749	294.777461	1341.217000	-285.878713	361.485837	1198.768739	-98.016871	323.707274	1212.507516	-457.793838	381.178396	1034.299791	-75.372754	406.318344	950.086014	-85.709468	389.396209	866.259621	-91.491169	438.737741	954.035957	-104.251802	387.139888	720.631741	-118.761344	356.101335	713.082677	-229.321395	300.038499	627.428462	-91.467042	261.829592	546.339909	-108.967322	189.666322	499.459340	-114.372994	287.317793	530.072847	-133.892821	98.956714	373.982992	-121.395622	122.057863	369.055001	-206.354017	37.735577	400.117494	-162.266784	216.534190	152.647897	-164.690078	157.786685	190.146352	-108.301915	372.060546	1132.188048	-464.951976	446.201704	1086.974383	-469.711515	472.137851	1111.691574	-462.314662	488.269892	1009.231272	-475.139484	584.882395	876.651267	-459.737403	614.584618	847.572148	-349.219125	526.435686	775.369755	-482.635106	487.403515	699.819637	-462.304694	413.144812	650.413555	-458.937068	509.936286	683.895911	-434.849770	310.710520	543.170125	-451.521187	307.380079	545.984096	-363.956766	226.621300	553.972145	-411.149973	494.532512	414.567611	-417.012716	414.986428	410.702231	-478.733240	-185.545130	935.288517	-287.148870	-17.516227	79.363477	-485.545556	-17.474014	79.529749	-84.918573	
1003	5.0150	834.642979	1291.506993	-156.839178	864.099542	1213.122370	-443.233612	863.914657	1326.651306	-311.378387	788.328988	1190.454732	-294.729607	598.637296	1140.622802	10.909472	707.917458	910.926966	-109.938034	605.548692	1137.080936	-581.875443	698.014422	918.186605	-480.351540	258.703647	1303.377474	-253.966194	380.304550	1278.890947	-439.735407	428.569164	1248.395456	-120.063598	407.954160	1225.415755	-405.169719	441.928707	1186.152214	-169.358692	310.286449	1330.976870	-217.647502	295.186254	1342.244365	-288.515480	360.479555	1201.849788	-98.309463	324.395967	1210.626676	-458.887936	383.699880	1036.620222	-77.016229	410.987432	953.068326	-87.511624	396.275520	868.741747	-92.271078	442.212355	957.616006	-108.024387	394.758166	722.984492	-118.471626	364.522130	715.596189	-229.301439	304.223933	631.992550	-91.781964	263.657303	552.153362	-109.653768	189.998093	507.591668	-115.776287	288.729550	535.110309	-134.510102	95.189490	384.128546	-123.473660	119.728287	378.816019	-208.289376	34.380205	411.019452	-165.862925	209.686151	160.514904	-163.530418	150.712601	199.637307	-108.691984	371.404874	1128.997080	-465.384782	444.567339	1082.028028	-469.533860	471.040717	1106.268929	-462.372229	484.843961	1003.317322	-473.807346	578.632801	868.856132	-456.768078	607.434891	839.789470	-346.792565	522.032769	764.854858	-480.362235	484.269494	688.937775	-459.759572	411.141615	637.980165	-457.036645	507.084479	673.715834	-432.121832	310.653408	529.874963	-450.950260	306.802024	531.999130	-363.549110	226.667630	536.772536	-410.832220	499.798884	409.179779	-417.244319	420.437537	402.478888	-478.907877	-185.486643	935.301809	-287.442060	-17.540740	79.303012	-485.589612	-17.491851	79.523580	-84.935964	
